<?xml version="1.0" encoding="UTF-8" standalone="no"?>
<svg
   xmlns:dc="http://purl.org/dc/elements/1.1/"
   xmlns:cc="http://creativecommons.org/ns#"
   xmlns:rdf="http://www.w3.org/1999/02/22-rdf-syntax-ns#"
   xmlns:svg="http://www.w3.org/2000/svg"
   xmlns="http://www.w3.org/2000/svg"
   id="svg32"
   version="1.1"
   style="overflow:visible"
   viewBox="-240 -157 480 320"
   height="1280px"
   width="1920px">
  <metadata
     id="metadata38">
    <rdf:RDF>
      <cc:Work
         rdf:about="">
        <dc:format>image/svg+xml</dc:format>
        <dc:type
           rdf:resource="http://purl.org/dc/dcmitype/StillImage" />
      </cc:Work>
    </rdf:RDF>
  </metadata>
  <defs
     id="defs36" />
  <rect
     id="rect2"
     fill-opacity="0"
     fill="rgb(0,0,0)"
     height="320"
     width="480"
     y="-157"
     x="-240" />
  <svg
     id="svg16"
     version="1.1"
     y="-252"
     x="-284"
     viewBox="-250 -250 500 500"
     height="500"
     width="500"
     style="overflow:visible">
    <g
       style="fill:#ffffff;stroke-linejoin:round"
       id="g14"
       transform="rotate(28)">
      <path
         style="fill:#9fe47f;fill-opacity:1;stroke:#444444;stroke-width:6;stroke-linecap:butt;stroke-linejoin:round;stroke-opacity:1"
         id="path4"
         d="m -2.971001,-114.674 -15.9676,4.85396 c 22.2968,67.1752 21.4373,131.532998 0.0196,194.268 l 15.9284,4.97923 c 22.4347,-65.7136 23.2956,-133.976 0.0196,-204.101 z" />
      <path
         style="fill:#ff3327;fill-opacity:1;stroke:none;stroke-linecap:butt;stroke-linejoin:round"
         id="path6"
         d="m -73.629,79.463 c 0,37.2997 25.4825,67.5373 60.2875,67.5373 3.6174,0 9.83335,-0.9727 13.3415,-0.9727 3.50815,0 9.72405,0.9727 13.3415,0.9727 34.805,0 60.2875,-30.2376 60.2875,-67.5373 C 73.629,42.1633 47.6565,20.1127 0,20.1127 c -47.6564,0 -73.629,22.0506 -73.629,59.3503 z" />
      <path
         style="fill:#ffffff;fill-opacity:1;stroke:none;stroke-linecap:butt;stroke-linejoin:round"
         id="path8"
         d="m -30.257001,68.601999 c -8.15744,14.904 -11.798,27.5318 -22.4198,25.0582 -11.5052,-2.67924 -10.2052,-25.8722 1.0803,-41.4003 11.2855,-15.5281 29.3002,-17.6703 33.4927,-10.4552 3.65588,6.29158 -3.99579,11.8933 -12.1532,26.7973 z" />
      <path
         style="fill:none;stroke:#444444;stroke-width:6;stroke-linecap:butt;stroke-linejoin:round;stroke-opacity:1"
         id="path10"
         d="m -73.629,79.463 c 0,37.2997 25.4825,67.5373 60.2875,67.5373 3.61741,0 9.83337,-0.9727 13.3415,-0.9727 3.50812,0 9.72406,0.9727 13.3415,0.9727 34.805,0 60.2875,-30.2376 60.2875,-67.5373 C 73.629,42.1633 47.6565,20.1127 0,20.1127 c -47.6564,0 -73.629,22.0506 -73.629,59.3503 z" />
      <path
         style="fill:#9fe47f;fill-opacity:1;stroke:#444444;stroke-width:6;stroke-linecap:butt;stroke-linejoin:round;stroke-opacity:1"
         id="path12"
         d="m -22.647,-146.581 c 5.45608,-1.31506 11.6581,0.54433 13.1781,5.31886 2.2514,7.0721 5.65529,16.9565 9.38285,21.338 2.3066,2.71127 -1.73947,9.39959 -9.58506,11.8385 -7.8456,2.43893 -15.0573,-1.52194 -15.1988,-6.1972 -0.27344,-9.0288 -2.20062,-13.7119 -4.48647,-19.4135 -1.86519,-4.65231 1.2534,-11.5696 6.70945,-12.8847 z" />
    </g>
  </svg>
  <svg
     id="svg30"
     version="1.1"
     y="-250"
     x="-197"
     viewBox="-250 -250 500 500"
     height="500"
     width="500"
     style="overflow:visible">
    <g
       style="fill:#ffffff;stroke-linejoin:round"
       id="g28"
       transform="rotate(-8)">
      <path
         style="fill:#9fe47f;fill-opacity:1;stroke:#444444;stroke-width:6;stroke-linecap:butt;stroke-linejoin:round;stroke-opacity:1"
         id="path18"
         d="m -2.971001,-114.674 -15.9676,4.85396 c 22.2968,67.1752 21.4373,131.532998 0.0196,194.268 l 15.9284,4.97923 c 22.4347,-65.7136 23.2956,-133.976 0.0196,-204.101 z" />
      <path
         style="fill:#ff3327;fill-opacity:1;stroke:none;stroke-linecap:butt;stroke-linejoin:round"
         id="path20"
         d="m -73.629,79.463 c 0,37.2997 25.4825,67.5373 60.2875,67.5373 3.6174,0 9.83335,-0.9727 13.3415,-0.9727 3.50815,0 9.72405,0.9727 13.3415,0.9727 34.805,0 60.2875,-30.2376 60.2875,-67.5373 C 73.629,42.1633 47.6565,20.1127 0,20.1127 c -47.6564,0 -73.629,22.0506 -73.629,59.3503 z" />
      <path
         style="fill:#ffffff;fill-opacity:1;stroke:none;stroke-linecap:butt;stroke-linejoin:round"
         id="path22"
         d="m -30.257001,68.601999 c -8.15744,14.904 -11.798,27.5318 -22.4198,25.0582 -11.5052,-2.67924 -10.2052,-25.8722 1.0803,-41.4003 11.2855,-15.5281 29.3002,-17.6703 33.4927,-10.4552 3.65588,6.29158 -3.99579,11.8933 -12.1532,26.7973 z" />
      <path
         style="fill:none;stroke:#444444;stroke-width:6;stroke-linecap:butt;stroke-linejoin:round;stroke-opacity:1"
         id="path24"
         d="m -73.629,79.463 c 0,37.2997 25.4825,67.5373 60.2875,67.5373 3.61741,0 9.83337,-0.9727 13.3415,-0.9727 3.50812,0 9.72406,0.9727 13.3415,0.9727 34.805,0 60.2875,-30.2376 60.2875,-67.5373 C 73.629,42.1633 47.6565,20.1127 0,20.1127 c -47.6564,0 -73.629,22.0506 -73.629,59.3503 z" />
      <path
         style="fill:#9fe47f;fill-opacity:1;stroke:#444444;stroke-width:6;stroke-linecap:butt;stroke-linejoin:round;stroke-opacity:1"
         id="path26"
         d="m -22.647,-146.581 c 5.45608,-1.31506 11.6581,0.54433 13.1781,5.31886 2.2514,7.0721 5.65529,16.9565 9.38285,21.338 2.3066,2.71127 -1.73947,9.39959 -9.58506,11.8385 -7.8456,2.43893 -15.0573,-1.52194 -15.1988,-6.1972 -0.27344,-9.0288 -2.20062,-13.7119 -4.48647,-19.4135 -1.86519,-4.65231 1.2534,-11.5696 6.70945,-12.8847 z" />
    </g>
  </svg>
</svg>
